<svg id="svg" class="path" title="background" version="1.1" xmlns="http://www.w3.org/2000/svg" style="background-color: rgb(225, 220, 137);"><path fill="#a7c580" stroke="#a7c580" d="M -50 748 L -50 0 C 74.99999999999999 0, 125.00000000000001 -25, 250 -25 C 375 -25, 425 25, 550 25 C 675 25, 725 -25, 850 -25 C 975 -25, 1025 25, 1150 25 C 1275 25, 1325 -25, 1450 -25 L 1330 0 L 1330 748 Z"></path><path fill="#72ac7c" stroke="#72ac7c" d="M -50 748 L -60 139 C 64.99999999999999 139, 115.00000000000001 114, 240 114 C 365 114, 415 164, 540 164 C 665 164, 715 114, 840 114 C 965 114, 1015 164, 1140 164 C 1265 164, 1315 114, 1440 114 L 1330 139 L 1330 748 Z"></path><path fill="#459178" stroke="#459178" d="M -50 748 L -70 279 C 54.999999999999986 279, 105.00000000000001 254, 230 254 C 355 254, 405 304, 530 304 C 655 304, 705 254, 830 254 C 955 254, 1005 304, 1130 304 C 1255 304, 1305 254, 1430 254 L 1330 279 L 1330 748 Z"></path><path fill="#1d7570" stroke="#1d7570" d="M -50 748 L -80 418 C 44.999999999999986 418, 95.00000000000001 393, 220 393 C 345 393, 395 443, 520 443 C 645 443, 695 393, 820 393 C 945 393, 995 443, 1120 443 C 1245 443, 1295 393, 1420 393 L 1330 418 L 1330 748 Z"></path><path fill="#005861" stroke="#005861" d="M -50 748 L -90 558 C 34.999999999999986 558, 85.00000000000001 533, 210 533 C 335 533, 385 583, 510 583 C 635 583, 685 533, 810 533 C 935 533, 985 583, 1110 583 C 1235 583, 1285 533, 1410 533 L 1330 558 L 1330 748 Z"></path><path fill="#003d4d" stroke="#003d4d" d="M -50 748 L -100 698 C 24.999999999999986 698, 75.00000000000001 673, 200 673 C 325 673, 375 723, 500 723 C 625 723, 675 673, 800 673 C 925 673, 975 723, 1100 723 C 1225 723, 1275 673, 1400 673 L 1330 698 L 1330 748 Z"></path></svg>